<svg width="40" height="40" fill="none" xmlns="http://www.w3.org/2000/svg"><path d="M11.667 29.167c-4.603 0-8.334-3.607-8.334-8.056 0-4.188 3.307-7.63 7.534-8.019m0 0C11.27 8.558 15.205 5 20 5c5.063 0 9.167 3.967 9.167 8.861 0 .272-.013.54-.038.806m-18.262-1.575c.263-.024.53-.036.8-.036 1.876 0 3.607.599 5 1.61m12.5 14.5c4.142 0 7.5-3.245 7.5-7.25 0-4.003-3.358-7.25-7.5-7.25h-.038m0 0a8.668 8.668 0 0 1-2.058 4.834m-6.107 3.833-2.957 4.473c-.396.6-.594.898-.47 1.13.122.23.479.23 1.192.23h2.542c.713 0 1.07 0 1.193.232.123.23-.075.53-.471 1.129L19.036 35" stroke="#1D1D1B" stroke-width="1.5" stroke-linecap="round" stroke-linejoin="round"/></svg>