<svg width="40" height="40" fill="none" xmlns="http://www.w3.org/2000/svg"><path d="M6.667 11.667V35M19.596 6.514c-5.509-2.806-9.844-1.162-12.005.518-.39.303-.585.454-.755.8-.17.347-.17.67-.17 1.316v15.405c1.617-1.83 6.465-4.665 12.93-1.372 5.777 2.943 10.694 1.723 13.02.451.323-.176.484-.264.6-.46.117-.197.117-.41.117-.837V9.79c0-1.381 0-2.071-.328-2.322-.33-.25-1.099-.036-2.638.39-2.634.73-6.463.85-10.77-1.344Z" stroke="#1D1D1B" stroke-width="1.5" stroke-linecap="round" stroke-linejoin="round"/></svg>