<svg width="32" height="32" fill="none" xmlns="http://www.w3.org/2000/svg"><path fill-rule="evenodd" clip-rule="evenodd" d="M14.81.011c-3.663.291-6.246 1.302-8.108 3.172-1.665 1.673-2.484 3.694-2.656 6.556-.177 2.944-.244 3.335-.849 4.95a193.05 193.05 0 0 0-.688 1.865c-.144.4-.468 1.269-.719 1.93-.25.661-.456 1.277-.456 1.368 0 .106.067.23.185.344l.185.178h3.157l.032 2.576c.035 2.892.025 2.824.5 3.505.43.618 1.05 1.034 1.736 1.165.171.032 1.094.059 2.051.059h1.74v3.979l.179.132c.239.177.493.169.721-.024l.185-.157v-2.3c0-2.376.002-2.36-.227-2.66-.013-.018-1.032-.045-2.264-.061l-2.241-.03-.344-.17c-.394-.195-.67-.51-.838-.955-.106-.28-.115-.5-.115-3.055v-2.753l-.156-.186-.156-.187H4.192c-1.137 0-1.471-.017-1.47-.076 0-.041.3-.867.667-1.834.86-2.268 1.199-3.2 1.3-3.576.147-.545.312-1.798.38-2.88.108-1.717.18-2.357.344-3.031.378-1.562 1.043-2.786 2.073-3.82 1.543-1.547 3.39-2.372 6.328-2.829 1.004-.156 4.189-.155 5.185.001 1.43.224 2.73.623 3.823 1.174 2.694 1.357 4.493 3.912 5.156 7.32.392 2.017.37 5.06-.053 7.07-.357 1.696-.518 2.176-1.148 3.42-.659 1.302-1.563 2.605-2.5 3.6-.2.213-.684.66-1.076.992-.996.846-1.443 1.45-1.777 2.405-.161.458-.162.47-.182 2.486l-.02 2.025.164.142c.262.226.528.21.764-.044l.165-.18v-1.655c0-1.804.04-2.169.306-2.756.254-.565.529-.907 1.155-1.442.84-.717 1.28-1.148 1.804-1.774 1.24-1.476 2.416-3.478 2.876-4.89.594-1.832.878-3.797.878-6.092 0-2.114-.23-3.687-.786-5.376-1.236-3.754-3.983-6.282-7.83-7.208-1.294-.311-2.095-.397-3.92-.417-.928-.01-1.823-.009-1.989.004Zm.039 6.878a4.144 4.144 0 0 0-2.693 1.542c-.536.672-.814 1.524-.813 2.484.001.727.113 1.246.393 1.82.305.626.567.946 1.17 1.432l.542.435.017 2.553.018 2.552.16.303c.363.684.928 1.024 1.709 1.028.408.002.534-.024.826-.168.423-.208.85-.672.977-1.059.076-.233.094-.655.1-2.277.003-1.095-.006-2.002-.02-2.016-.014-.015-.016-.224-.004-.465.021-.422.03-.446.245-.62.853-.694 1.202-1.089 1.515-1.712.559-1.113.531-2.595-.07-3.743-.116-.223-.39-.567-.704-.884-.648-.654-1.352-1.031-2.195-1.177-.581-.1-.608-.101-1.173-.028Zm1.24 1.173c.492.132.84.325 1.222.681.668.622.965 1.286.965 2.16 0 .479-.133 1.134-.266 1.317a3.2 3.2 0 0 0-.186.327c-.183.361-1.115 1.149-1.478 1.247l-.15.04-.03 2.827-.03 2.826-.176.184c-.362.38-.853.38-1.214.003l-.178-.187-.03-2.776c-.024-2.143-.048-2.797-.108-2.87-.043-.052-.23-.169-.415-.26-.503-.247-1.06-.827-1.313-1.368-.66-1.41-.217-2.916 1.128-3.829.55-.373 1.54-.514 2.26-.322Z" fill="#1D1D1B"/></svg>