<svg width="40" height="40" fill="none" xmlns="http://www.w3.org/2000/svg"><path d="M11.667 30c-3.049.686-5 1.74-5 2.923 0 2.067 5.97 3.744 13.333 3.744 7.364 0 13.333-1.677 13.333-3.744 0-1.183-1.951-2.237-5-2.923" stroke="#1D1D1B" stroke-width="1.5" stroke-linecap="round"/><path d="M24.167 15a4.167 4.167 0 1 1-8.334 0 4.167 4.167 0 0 1 8.334 0Z" stroke="#1D1D1B" stroke-width="1.5"/><path d="M22.096 29.156a3.021 3.021 0 0 1-4.191 0c-5.148-4.988-12.046-10.56-8.682-18.65C11.042 6.132 15.408 3.333 20 3.333s8.959 2.8 10.778 7.173c3.36 8.08-3.522 13.68-8.682 18.65Z" stroke="#1D1D1B" stroke-width="1.5"/></svg>