<svg width="40" height="40" fill="none" xmlns="http://www.w3.org/2000/svg"><path d="m3.333 10 11.522 6.528c4.248 2.407 6.042 2.407 10.29 0L36.667 10" stroke="#1D1D1B" stroke-width="1.5" stroke-linejoin="round"/><path d="M3.36 22.46c.109 5.109.163 7.663 2.048 9.556 1.886 1.892 4.51 1.958 9.757 2.09 3.234.081 6.436.081 9.67 0 5.248-.132 7.871-.198 9.757-2.09 1.885-1.893 1.94-4.447 2.048-9.557.035-1.642.035-3.276 0-4.918-.108-5.11-.163-7.664-2.048-9.557-1.886-1.892-4.51-1.958-9.757-2.09a191.848 191.848 0 0 0-9.67 0c-5.248.132-7.871.198-9.757 2.09-1.885 1.893-1.94 4.447-2.048 9.557a115.101 115.101 0 0 0 0 4.918Z" stroke="#1D1D1B" stroke-width="1.5" stroke-linejoin="round"/></svg>