<svg width="24" height="24" fill="none" xmlns="http://www.w3.org/2000/svg"><path d="M12 11.833v2.917" stroke="#1D1D1B" stroke-linecap="round"/><path fill-rule="evenodd" clip-rule="evenodd" d="M13.167 19.284c0 .237.213.418.444.363A7.003 7.003 0 0 0 19 12.833V7A7 7 0 1 0 5 7v5.833c0 3.312 2.3 6.087 5.39 6.814a.365.365 0 0 0 .443-.363.4.4 0 0 0-.31-.385 6.244 6.244 0 0 1-4.765-6.066V7a6.242 6.242 0 1 1 12.484 0v5.833a6.244 6.244 0 0 1-4.765 6.066.4.4 0 0 0-.31.385Z" fill="#1D1D1B"/><path d="M3 15v0a8 8 0 0 0 8 8h2a8 8 0 0 0 8-8v0" stroke="#1D1D1B" stroke-width=".758" stroke-linecap="round"/></svg>