<svg width="40" height="40" fill="none" xmlns="http://www.w3.org/2000/svg"><path d="M9.2 5a2.493 2.493 0 0 0-2.486 2.501c0 1.381 1.113 2.5 2.486 2.5a2.493 2.493 0 0 0 2.486-2.5c0-1.381-1.113-2.5-2.486-2.5Zm21.604 30h-2.963c-.345 0-.69-.05-1.007-.191-1.029-.46-1.551-1.068-1.794-1.448a.62.62 0 0 1 .031-.7c1.192-1.647 3.957-2.643 5.733-2.643m.006 4.983h2.963c.345 0 .69-.05 1.006-.192 1.03-.46 1.552-1.068 1.795-1.448a.62.62 0 0 0-.031-.7c-1.193-1.647-3.957-2.643-5.733-2.643M9.191 19.154H6.227c-.344 0-.69-.05-1.006-.192-1.029-.46-1.551-1.067-1.794-1.447a.62.62 0 0 1 .031-.7c1.192-1.648 3.957-2.643 5.733-2.643m.005 4.982h2.964c.345 0 .69-.05 1.006-.192 1.03-.46 1.552-1.067 1.795-1.447a.62.62 0 0 0-.031-.7c-1.193-1.648-3.957-2.643-5.734-2.643m9.948-7.505c4.688 0 8.69 0 10.146 1.465 1.456 1.465 1.456 2.989 1.456 7.705l-3.315-1.668m-7.457 19.174c-4.688 0-8.689 0-10.145-1.465-1.457-1.465-1.457-2.99-1.457-7.705l3.315 1.668m19.059-5.003a2.493 2.493 0 0 0-2.486 2.501 2.494 2.494 0 0 0 2.486 2.501 2.493 2.493 0 0 0 2.486-2.5 2.494 2.494 0 0 0-2.486-2.502Z" stroke="#1D1D1B" stroke-width="1.5" stroke-linecap="round" stroke-linejoin="round"/></svg>