<svg width="40" height="40" fill="none" xmlns="http://www.w3.org/2000/svg"><path d="M6.296 19.904c-1.58-2.755-2.343-5.005-2.803-7.285-.68-3.373.877-6.668 3.456-8.77 1.09-.888 2.34-.585 2.984.572l1.456 2.61c1.153 2.07 1.73 3.105 1.616 4.202-.115 1.097-.893 1.99-2.448 3.777l-4.26 4.894Zm0 0c3.198 5.576 8.217 10.598 13.8 13.8m0 0c2.755 1.58 5.005 2.343 7.285 2.803 3.373.68 6.668-.877 8.77-3.456.888-1.09.585-2.34-.572-2.984l-2.61-1.456c-2.07-1.153-3.105-1.73-4.202-1.616-1.097.115-1.99.893-3.777 2.448l-4.894 4.261Z" stroke="#1D1D1B" stroke-width="1.5" stroke-linejoin="round"/></svg>