<svg width="40" height="40" fill="none" xmlns="http://www.w3.org/2000/svg"><path d="M20 31.667a8.361 8.361 0 0 0-4.15-7.217A11.566 11.566 0 0 1 25 20c6.45 0 11.667 5.217 11.667 11.667H20Z" stroke="#1D1D1B" stroke-width="1.5" stroke-miterlimit="10" stroke-linecap="round" stroke-linejoin="round"/><path d="M25 20a5.833 5.833 0 1 0 0-11.667A5.833 5.833 0 0 0 25 20Zm-13.333 3.333a8.336 8.336 0 0 0-8.334 8.334H20c0-4.6-3.733-8.334-8.333-8.334Z" stroke="#1D1D1B" stroke-width="1.5" stroke-miterlimit="10" stroke-linecap="round" stroke-linejoin="round"/><path d="M11.667 23.333a4.167 4.167 0 1 0 0-8.333 4.167 4.167 0 0 0 0 8.333Z" stroke="#1D1D1B" stroke-width="1.5" stroke-miterlimit="10" stroke-linecap="round" stroke-linejoin="round"/></svg>