<svg width="273" height="250" fill="none" xmlns="http://www.w3.org/2000/svg"><g filter="url(#a)" fill="#fff"><mask id="b"><path fill-rule="evenodd" clip-rule="evenodd" d="M60 11c0-6.075 4.925-11 11-11h131c6.075 0 11 4.925 11 11s4.925 11 11 11h29c11.046 0 20 8.954 20 20v188c0 11.046-8.954 20-20 20H20c-11.046 0-20-8.954-20-20V42c0-11.046 8.954-20 20-20h29c6.075 0 11-4.925 11-11Z"/></mask><path fill-rule="evenodd" clip-rule="evenodd" d="M60 11c0-6.075 4.925-11 11-11h131c6.075 0 11 4.925 11 11s4.925 11 11 11h29c11.046 0 20 8.954 20 20v188c0 11.046-8.954 20-20 20H20c-11.046 0-20-8.954-20-20V42c0-11.046 8.954-20 20-20h29c6.075 0 11-4.925 11-11Z" fill-opacity=".6"/><path d="M202-1.3H71v2.6h131v-2.6Zm51 22h-29v2.6h29v-2.6ZM274.3 230V42h-2.6v188h2.6ZM20 251.3h233v-2.6H20v2.6ZM-1.3 42v188h2.6V42h-2.6ZM49 20.7H20v2.6h29v-2.6Zm0 2.6c6.793 0 12.3-5.507 12.3-12.3h-2.6c0 5.357-4.343 9.7-9.7 9.7v2.6ZM1.3 42c0-10.328 8.372-18.7 18.7-18.7v-2.6C8.236 20.7-1.3 30.236-1.3 42h2.6ZM20 248.7c-10.328 0-18.7-8.372-18.7-18.7h-2.6c0 11.764 9.536 21.3 21.3 21.3v-2.6ZM271.7 230c0 10.328-8.372 18.7-18.7 18.7v2.6c11.764 0 21.3-9.536 21.3-21.3h-2.6ZM253 23.3c10.328 0 18.7 8.372 18.7 18.7h2.6c0-11.764-9.536-21.3-21.3-21.3v2.6ZM211.7 11c0 6.793 5.507 12.3 12.3 12.3v-2.6c-5.357 0-9.7-4.343-9.7-9.7h-2.6ZM71-1.3c-6.793 0-12.3 5.507-12.3 12.3h2.6c0-5.357 4.343-9.7 9.7-9.7v-2.6Zm131 2.6c5.357 0 9.7 4.343 9.7 9.7h2.6c0-6.793-5.507-12.3-12.3-12.3v2.6Z" mask="url(#b)"/></g><defs><filter id="a" x="-58" y="-58" width="389" height="366" filterUnits="userSpaceOnUse" color-interpolation-filters="sRGB"><feFlood flood-opacity="0" result="BackgroundImageFix"/><feGaussianBlur in="BackgroundImageFix" stdDeviation="29"/><feComposite in2="SourceAlpha" operator="in" result="effect1_backgroundBlur_4103_1269"/><feBlend in="SourceGraphic" in2="effect1_backgroundBlur_4103_1269" result="shape"/></filter></defs></svg>