<svg width="219" height="202" fill="none" xmlns="http://www.w3.org/2000/svg"><g filter="url(#a)" fill="#fff"><mask id="b"><path fill-rule="evenodd" clip-rule="evenodd" d="M82 20C82 8.954 73.046 0 62 0H20C8.954 0 0 8.954 0 20v162c0 11.046 8.954 20 20 20h179c11.046 0 20-8.954 20-20V67c0-11.046-8.954-20-20-20h-97c-11.046 0-20-8.954-20-20v-7Z"/></mask><path fill-rule="evenodd" clip-rule="evenodd" d="M82 20C82 8.954 73.046 0 62 0H20C8.954 0 0 8.954 0 20v162c0 11.046 8.954 20 20 20h179c11.046 0 20-8.954 20-20V67c0-11.046-8.954-20-20-20h-97c-11.046 0-20-8.954-20-20v-7Z" fill-opacity=".6"/><path d="M20 1.3h42v-2.6H20v2.6ZM1.3 182V20h-2.6v162h2.6ZM199 200.7H20v2.6h179v-2.6ZM217.7 67v115h2.6V67h-2.6ZM199 45.7h-97v2.6h97v-2.6ZM83.3 27v-7h-2.6v7h2.6ZM102 45.7c-10.328 0-18.7-8.372-18.7-18.7h-2.6c0 11.764 9.536 21.3 21.3 21.3v-2.6ZM220.3 67c0-11.764-9.536-21.3-21.3-21.3v2.6c10.328 0 18.7 8.372 18.7 18.7h2.6ZM199 203.3c11.764 0 21.3-9.536 21.3-21.3h-2.6c0 10.328-8.372 18.7-18.7 18.7v2.6ZM-1.3 182c0 11.764 9.536 21.3 21.3 21.3v-2.6c-10.328 0-18.7-8.372-18.7-18.7h-2.6ZM62 1.3c10.328 0 18.7 8.372 18.7 18.7h2.6C83.3 8.236 73.764-1.3 62-1.3v2.6ZM20-1.3C8.236-1.3-1.3 8.236-1.3 20h2.6C1.3 9.672 9.672 1.3 20 1.3v-2.6Z" mask="url(#b)"/></g><defs><filter id="a" x="-58" y="-58" width="335" height="318" filterUnits="userSpaceOnUse" color-interpolation-filters="sRGB"><feFlood flood-opacity="0" result="BackgroundImageFix"/><feGaussianBlur in="BackgroundImageFix" stdDeviation="29"/><feComposite in2="SourceAlpha" operator="in" result="effect1_backgroundBlur_4103_1287"/><feBlend in="SourceGraphic" in2="effect1_backgroundBlur_4103_1287" result="shape"/></filter></defs></svg>