<svg width="24" height="24" fill="none" xmlns="http://www.w3.org/2000/svg"><g clip-path="url(#a)"><path d="M12 0a2.75 2.75 0 0 0-1.61.548L8.886 1.615l-1.723.23h-.027l-.029.029a3.051 3.051 0 0 0-1.496.84c-.41.419-.696.948-.823 1.526l-.027.028v.03l-.227 1.788L3.49 7.471l-.029.027v.03c-.631 1.032-.66 2.363.03 3.346l1.072 1.53.284 1.586-2.914 4.53L1 19.931h4.326l1.046 2.48L7.024 24l.932-1.443 2.858-4.384c.765.323 1.634.351 2.374 0l2.857 4.384.932 1.44.651-1.587 1.046-2.48H23l-.932-1.413-2.829-4.384.226-1.73 1.047-1.529.029-.027v-.028c.631-1.034.66-2.333-.03-3.318l-1.046-1.53-.339-1.73h.027c0-.024-.024-.038-.027-.059-.163-1.206-1.101-2.187-2.29-2.335h-.028l-1.697-.23-1.5-1.068A2.75 2.75 0 0 0 12 0Zm0 1.874c.208 0 .414.064.566.175l1.61 1.181.2.144.226.03 1.98.288h.027a.811.811 0 0 1 .735.75V4.5l.369 2.05.027.2.142.173 1.158 1.643c.217.31.245.825-.027 1.27l-1.131 1.615-.141.203-.03.231-.282 2.018v.028a.903.903 0 0 1-.14.404l-.058.03v.029a.794.794 0 0 1-.536.288h-.056l-2.064.375-.226.028-.172.145-1.61 1.181c-.302.222-.837.25-1.273-.027L9.823 15.23l-.17-.144-.254-.03-1.98-.287h-.03a.798.798 0 0 1-.622-.404.918.918 0 0 1-.113-.347v-.057l-.368-2.104-.029-.231-.14-.176-1.159-1.642c-.217-.308-.244-.853.027-1.298l1.131-1.5.141-.174.028-.259.256-1.933c.002-.013.023-.014.027-.028a1.29 1.29 0 0 1 .33-.587 1.26 1.26 0 0 1 .575-.336c.013-.004.014-.026.027-.028l1.896-.26.226-.03.199-.144 1.61-1.181a.977.977 0 0 1 .566-.175H12Zm6.25 14.047 1.386 2.164h-2.18l-.226.576-.62 1.47-1.923-2.999.423-.317 1.781-.319v.028c.023 0 .036-.025.057-.028.476-.07.925-.27 1.3-.577l.001.002Zm-12.5.028c.387.353.876.598 1.414.664h.027l1.727.231.395.318-1.922 2.97-.621-1.47-.227-.578h-2.18l1.386-2.135h.002Z" fill="#1D1D1B"/></g><defs><clipPath id="a"><path fill="#fff" d="M0 0h24v24H0z"/></clipPath></defs></svg>