<svg width="40" height="40" viewBox="0 0 40 40" fill="none" xmlns="http://www.w3.org/2000/svg">
<path d="M11.6666 29.1667C7.06422 29.1667 3.33325 25.56 3.33325 21.1112C3.33325 16.9228 6.63989 13.481 10.8673 13.0921M10.8673 13.0921C11.2705 8.55833 15.2053 5 19.9999 5C25.0626 5 29.1666 8.96725 29.1666 13.8611C29.1666 14.1327 29.1539 14.4014 29.1293 14.6667M10.8673 13.0921C11.1304 13.0679 11.397 13.0556 11.6666 13.0556C13.543 13.0556 15.2745 13.655 16.6674 14.6667M29.1666 29.1667C33.3088 29.1667 36.6666 25.9207 36.6666 21.9167C36.6666 17.9127 33.3088 14.6667 29.1666 14.6667C29.1541 14.6667 29.1416 14.6667 29.1293 14.6667M29.1293 14.6667C28.9588 16.4945 28.2143 18.1622 27.0713 19.5" stroke="#1D1D1B" stroke-width="1.5" stroke-linecap="round" stroke-linejoin="round"/>
<path d="M20.964 23.3334L18.0071 27.8064C17.6113 28.4052 17.4135 28.7045 17.5361 28.9357C17.6586 29.1667 18.0155 29.1667 18.7291 29.1667H21.2708C21.9845 29.1667 22.3413 29.1667 22.4638 29.3977C22.5865 29.6289 22.3886 29.9282 21.9928 30.527L19.036 35" stroke="#1D1D1B" stroke-width="1.5" stroke-linecap="round" stroke-linejoin="round"/>
</svg>
