<svg width="40" height="40" viewBox="0 0 40 40" fill="none" xmlns="http://www.w3.org/2000/svg">
<path d="M6.66675 11.6666V35" stroke="#1D1D1B" stroke-width="1.5" stroke-linecap="round" stroke-linejoin="round"/>
<path d="M19.5961 6.51442C14.0873 3.70828 9.75216 5.3524 7.59051 7.032C7.20088 7.33475 7.00605 7.48612 6.8364 7.83278C6.66675 8.17945 6.66675 8.5023 6.66675 9.148V24.5532C8.28291 22.7237 13.1314 19.888 19.5961 23.181C25.3734 26.124 30.2902 24.904 32.6162 23.6325C32.9389 23.4562 33.1002 23.3678 33.2169 23.1713C33.3334 22.9748 33.3334 22.7615 33.3334 22.3348V9.78982C33.3334 8.40897 33.3334 7.71855 33.0046 7.46843C32.6756 7.21832 31.9061 7.43167 30.3671 7.8584C27.7334 8.58865 23.9039 8.70887 19.5961 6.51442Z" stroke="#1D1D1B" stroke-width="1.5" stroke-linecap="round" stroke-linejoin="round"/>
</svg>
