<svg width="32" height="32" viewBox="0 0 32 32" fill="none" xmlns="http://www.w3.org/2000/svg">
<path fill-rule="evenodd" clip-rule="evenodd" d="M14.8091 0.0114753C11.147 0.301985 8.56392 1.31253 6.70213 3.18296C5.03689 4.85588 4.21789 6.87726 4.04576 9.73908C3.86868 12.6835 3.80176 13.0739 3.19698 14.6882C2.96239 15.3144 2.65261 16.1542 2.50864 16.5543C2.3646 16.9544 2.04138 17.8227 1.79039 18.4839C1.53934 19.1451 1.33398 19.7606 1.33398 19.8518C1.33398 19.9577 1.40079 20.0818 1.51914 20.1956L1.70423 20.3736H3.28265H4.86102L4.89261 22.9501C4.92812 25.8416 4.91847 25.7741 5.39254 26.4547C5.8229 27.0726 6.44342 27.4888 7.12941 27.6196C7.30016 27.6522 8.22297 27.6788 9.18003 27.6788H10.9203V29.668V31.6572L11.0987 31.7898C11.3376 31.9674 11.5916 31.9588 11.82 31.7655L12.0055 31.6086V29.3081C12.0055 26.9332 12.0068 26.9482 11.7777 26.6482C11.765 26.6315 10.7462 26.6042 9.51363 26.5876L7.27266 26.5573L6.92852 26.3873C6.53518 26.1931 6.25869 25.8783 6.09054 25.4333C5.98466 25.1531 5.9764 24.9325 5.9764 22.3782V19.6251L5.82031 19.4386L5.66422 19.2521H4.19245C3.05488 19.2521 2.7208 19.2349 2.72128 19.1763C2.72165 19.1346 3.0219 18.3094 3.38853 17.3424C4.24864 15.074 4.58784 14.1411 4.68895 13.7656C4.83551 13.2213 5.00077 11.9682 5.06878 10.886C5.17658 9.16921 5.24917 8.52945 5.41268 7.85476C5.79131 6.29279 6.45578 5.06867 7.48567 4.03588C9.02901 2.48815 10.8751 1.66269 13.8143 1.20595C14.8176 1.05009 18.0026 1.05069 18.9993 1.20698C20.4292 1.43117 21.7285 1.83026 22.8219 2.38115C25.5157 3.7384 27.3153 6.29309 27.9778 9.70046C28.3701 11.718 28.3472 14.761 27.9247 16.7718C27.5683 18.4674 27.4073 18.9471 26.7771 20.1917C26.1182 21.493 25.2136 22.7955 24.2768 23.7916C24.0767 24.0043 23.5928 24.4503 23.2014 24.7826C22.2047 25.6289 21.7577 26.2336 21.4235 27.188C21.263 27.6463 21.2621 27.6583 21.2418 29.6737L21.2213 31.6988L21.3858 31.841C21.6475 32.0671 21.9144 32.0517 22.1495 31.7971L22.3153 31.6174V29.9624C22.3153 28.1576 22.3556 27.7934 22.6207 27.2056C22.8752 26.6412 23.1497 26.2988 23.7762 25.7642C24.6166 25.047 25.0554 24.6156 25.5804 23.9903C26.8196 22.5141 27.9964 20.5123 28.4555 19.0994C29.0504 17.2684 29.3339 15.3028 29.334 13.0078C29.334 10.8941 29.104 9.32096 28.5477 7.63173C27.3118 3.87838 24.5651 1.35011 20.7176 0.424082C19.4238 0.112717 18.6231 0.0274192 16.7987 0.00668583C15.8702 -0.00386274 14.9749 -0.00168014 14.8091 0.0114753ZM14.8486 6.88939C13.8017 7.02597 12.8345 7.57965 12.1564 8.43069C11.6204 9.10332 11.3418 9.95466 11.3432 10.9151C11.3442 11.6419 11.4563 12.1608 11.7357 12.7341C12.0412 13.3605 12.3031 13.681 12.9066 14.1669L13.4476 14.6025L13.4652 17.1547L13.4827 19.7068L13.6433 20.0099C14.0057 20.694 14.5708 21.0339 15.3517 21.0376C15.7604 21.0396 15.8865 21.014 16.1778 20.8704C16.6011 20.6618 17.0284 20.1984 17.1549 19.811C17.231 19.5779 17.2494 19.156 17.2543 17.5341C17.2576 16.4392 17.2487 15.5317 17.2346 15.5175C17.2205 15.5033 17.2188 15.2943 17.231 15.053C17.2521 14.6307 17.2613 14.6075 17.4765 14.4325C18.3286 13.7394 18.6782 13.3442 18.9913 12.7207C19.5496 11.6085 19.522 10.1255 18.9216 8.97843C18.8047 8.75497 18.5303 8.41081 18.2166 8.09417C17.5685 7.4401 16.8652 7.06271 16.0221 6.91679C15.4409 6.81621 15.4144 6.81561 14.8486 6.88939ZM16.0899 8.0621C16.5813 8.19359 16.9286 8.38741 17.3109 8.74333C17.9792 9.36545 18.2758 10.0292 18.2758 10.9025C18.2758 11.3815 18.1433 12.0375 18.0098 12.2197C17.9731 12.2697 17.8896 12.4168 17.824 12.5466C17.6415 12.9083 16.7086 13.6959 16.3465 13.794L16.1958 13.8349L16.1656 16.6608L16.1355 19.4867L15.9597 19.6711C15.5978 20.0509 15.1067 20.0519 14.7462 19.6739L14.5679 19.4867L14.5377 16.7112C14.5145 14.5676 14.4899 13.9141 14.4297 13.8413C14.3868 13.7894 14.2001 13.6724 14.0147 13.5812C13.5119 13.3338 12.9553 12.7536 12.7018 12.2125C12.0416 10.8035 12.4854 9.29743 13.8298 8.38413C14.3794 8.01075 15.3705 7.8695 16.0899 8.0621Z" fill="#1D1D1B"/>
</svg>
