<svg width="40" height="40" viewBox="0 0 40 40" fill="none" xmlns="http://www.w3.org/2000/svg">
<path d="M11.6666 30C8.61841 30.6862 6.66663 31.7405 6.66663 32.9228C6.66663 34.9905 12.6362 36.6667 20 36.6667C27.3638 36.6667 33.3333 34.9905 33.3333 32.9228C33.3333 31.7405 31.3815 30.6862 28.3333 30" stroke="#1D1D1B" stroke-width="1.5" stroke-linecap="round"/>
<path d="M24.1667 15C24.1667 17.3012 22.3012 19.1667 20 19.1667C17.6989 19.1667 15.8334 17.3012 15.8334 15C15.8334 12.6988 17.6989 10.8333 20 10.8333C22.3012 10.8333 24.1667 12.6988 24.1667 15Z" stroke="#1D1D1B" stroke-width="1.5"/>
<path d="M22.0957 29.156C21.5335 29.6973 20.7822 30 20.0004 30C19.2184 30 18.467 29.6973 17.9049 29.156C12.7572 24.168 5.85869 18.5958 9.22289 10.5062C11.0419 6.1322 15.4083 3.33333 20.0004 3.33333C24.5924 3.33333 28.9587 6.13221 30.7777 10.5062C34.1377 18.5857 27.256 24.1852 22.0957 29.156Z" stroke="#1D1D1B" stroke-width="1.5"/>
</svg>
