<svg width="40" height="40" viewBox="0 0 40 40" fill="none" xmlns="http://www.w3.org/2000/svg">
<path d="M3.33337 10L14.8551 16.5283C19.1027 18.935 20.8974 18.935 25.145 16.5283L36.6667 10" stroke="#1D1D1B" stroke-width="1.5" stroke-linejoin="round"/>
<path d="M3.35966 22.4593C3.46861 27.5687 3.52309 30.1232 5.40831 32.0157C7.29351 33.908 9.91726 33.9738 15.1648 34.1057C18.3989 34.187 21.6012 34.187 24.8354 34.1057C30.0829 33.9738 32.7065 33.908 34.5919 32.0157C36.477 30.1232 36.5315 27.5687 36.6404 22.4593C36.6755 20.8165 36.6755 19.1835 36.6404 17.5407C36.5315 12.4314 36.477 9.87683 34.5919 7.98445C32.7065 6.09206 30.0829 6.02615 24.8354 5.8943C21.6012 5.81303 18.3989 5.81303 15.1647 5.89428C9.91726 6.02611 7.29351 6.09203 5.40829 7.98443C3.52307 9.87681 3.46861 12.4314 3.35964 17.5407C3.32461 19.1835 3.32462 20.8165 3.35966 22.4593Z" stroke="#1D1D1B" stroke-width="1.5" stroke-linejoin="round"/>
</svg>
