<svg width="24" height="24" viewBox="0 0 24 24" fill="none" xmlns="http://www.w3.org/2000/svg">
<path d="M12 11.8334L12 14.75" stroke="#1D1D1B" stroke-linecap="round"/>
<path fill-rule="evenodd" clip-rule="evenodd" d="M13.1667 19.2837C13.1667 19.5207 13.3801 19.7015 13.6108 19.6472C16.7003 18.9196 19 16.145 19 12.8334L19 7.00005C19 3.13406 15.866 4.93171e-05 12 4.89791e-05C8.13401 4.86411e-05 5 3.13406 5 7.00005L5 12.8334C5 16.145 7.29968 18.9196 10.3892 19.6472C10.6199 19.7015 10.8333 19.5207 10.8333 19.2837C10.8333 19.0996 10.7018 18.9427 10.5228 18.8992C7.78862 18.2357 5.75834 15.7716 5.75834 12.8334L5.75834 7.00005C5.75834 3.55287 8.55283 0.758382 12 0.758382C15.4472 0.758382 18.2417 3.55287 18.2417 7.00005L18.2417 12.8334C18.2417 15.7716 16.2114 18.2357 13.4772 18.8992C13.2982 18.9427 13.1667 19.0996 13.1667 19.2837Z" fill="#1D1D1B"/>
<path d="M3 15V15C3 19.4183 6.58172 23 11 23L13 23C17.4183 23 21 19.4183 21 15V15" stroke="#1D1D1B" stroke-width="0.758333" stroke-linecap="round"/>
</svg>
