<svg width="40" height="40" viewBox="0 0 40 40" fill="none" xmlns="http://www.w3.org/2000/svg">
<path d="M9.20002 5.00024C7.82695 5.00024 6.71387 6.11988 6.71387 7.50104C6.71387 8.88219 7.82695 10.0018 9.20002 10.0018C10.5731 10.0018 11.6862 8.88219 11.6862 7.50104C11.6862 6.11988 10.5731 5.00024 9.20002 5.00024Z" stroke="#1D1D1B" stroke-width="1.5" stroke-linecap="round" stroke-linejoin="round"/>
<path d="M30.8043 35.0006H27.8405C27.4961 35.0006 27.1505 34.9502 26.8343 34.8089C25.8051 34.3487 25.283 33.7411 25.0396 33.3611C24.9011 33.1447 24.921 32.8692 25.0711 32.6617C26.2635 31.0137 29.0281 30.0182 30.8043 30.0181M30.8095 35.0006H33.7733C34.1176 35.0006 34.4633 34.9502 34.7795 34.8089C35.8086 34.3487 36.3308 33.7411 36.5741 33.3611C36.7126 33.1447 36.693 32.8692 36.5426 32.6617C35.3503 31.0137 32.5856 30.0182 30.8095 30.0181" stroke="#1D1D1B" stroke-width="1.5" stroke-linecap="round" stroke-linejoin="round"/>
<path d="M9.19134 19.1543H6.22741C5.88317 19.1543 5.53749 19.1038 5.22132 18.9625C4.19214 18.5025 3.66997 17.8948 3.42662 17.5148C3.28816 17.2985 3.30787 17.023 3.4581 16.8153C4.6505 15.1674 7.41516 14.172 9.19134 14.1719M9.19641 19.1543H12.1603C12.5046 19.1543 12.8503 19.1038 13.1664 18.9625C14.1956 18.5025 14.7178 17.8948 14.9611 17.5148C15.0996 17.2985 15.0799 17.023 14.9296 16.8153C13.7372 15.1674 10.9726 14.172 9.19641 14.1719" stroke="#1D1D1B" stroke-width="1.5" stroke-linecap="round" stroke-linejoin="round"/>
<path d="M19.1438 6.66699C23.8316 6.66699 27.8331 6.66699 29.2895 8.13193C30.7458 9.59686 30.7458 11.121 30.7458 15.8366L27.431 14.1694" stroke="#1D1D1B" stroke-width="1.5" stroke-linecap="round" stroke-linejoin="round"/>
<path d="M19.9744 33.343C15.2864 33.343 11.285 33.343 9.82866 31.878C8.37231 30.413 8.37231 28.8888 8.37231 24.1733L11.6872 25.8405" stroke="#1D1D1B" stroke-width="1.5" stroke-linecap="round" stroke-linejoin="round"/>
<path d="M30.7463 20.8384C29.3733 20.8384 28.2603 21.958 28.2603 23.3392C28.2603 24.7204 29.3733 25.84 30.7463 25.84C32.1194 25.84 33.2324 24.7204 33.2324 23.3392C33.2324 21.958 32.1194 20.8384 30.7463 20.8384Z" stroke="#1D1D1B" stroke-width="1.5" stroke-linecap="round" stroke-linejoin="round"/>
</svg>
