<svg width="40" height="40" viewBox="0 0 40 40" fill="none" xmlns="http://www.w3.org/2000/svg">
<path d="M6.29607 19.904C4.71604 17.1488 3.95312 14.8991 3.49311 12.6187C2.81274 9.24598 4.36972 5.95136 6.94901 3.84913C8.03912 2.96065 9.28876 3.26421 9.93337 4.42068L11.3887 7.03153C12.5422 9.10096 13.1189 10.1357 13.0045 11.2327C12.8902 12.3297 12.1123 13.2231 10.5567 15.01L6.29607 19.904ZM6.29607 19.904C9.49422 25.4805 14.5131 30.5022 20.096 33.704M20.096 33.704C22.8512 35.284 25.1009 36.047 27.3814 36.507C30.754 37.1873 34.0487 35.6303 36.1509 33.051C37.0394 31.961 36.7359 30.7113 35.5794 30.0667L32.9685 28.6113C30.899 27.4578 29.8644 26.8812 28.7674 26.9955C27.6704 27.1098 26.7769 27.8877 24.99 29.4433L20.096 33.704Z" stroke="#1D1D1B" stroke-width="1.5" stroke-linejoin="round"/>
</svg>
