<svg width="40" height="40" viewBox="0 0 40 40" fill="none" xmlns="http://www.w3.org/2000/svg">
<path d="M20.0001 31.6667C20.0001 28.6 18.3334 25.9 15.8501 24.45C17.9668 21.7333 21.2834 20 25.0001 20C31.4501 20 36.6668 25.2167 36.6668 31.6667C36.6668 31.6667 26.9001 31.6667 20.0001 31.6667Z" stroke="#1D1D1B" stroke-width="1.5" stroke-miterlimit="10" stroke-linecap="round" stroke-linejoin="round"/>
<path d="M25.0001 19.9999C28.2217 19.9999 30.8334 17.3882 30.8334 14.1666C30.8334 10.9449 28.2217 8.33325 25.0001 8.33325C21.7784 8.33325 19.1667 10.9449 19.1667 14.1666C19.1667 17.3882 21.7784 19.9999 25.0001 19.9999Z" stroke="#1D1D1B" stroke-width="1.5" stroke-miterlimit="10" stroke-linecap="round" stroke-linejoin="round"/>
<path d="M11.6666 23.3333C7.06659 23.3333 3.33325 27.0666 3.33325 31.6666C3.34992 31.6666 19.9999 31.6666 19.9999 31.6666C19.9999 27.0666 16.2666 23.3333 11.6666 23.3333Z" stroke="#1D1D1B" stroke-width="1.5" stroke-miterlimit="10" stroke-linecap="round" stroke-linejoin="round"/>
<path d="M11.6667 23.3333C13.9679 23.3333 15.8333 21.4679 15.8333 19.1667C15.8333 16.8655 13.9679 15 11.6667 15C9.36548 15 7.5 16.8655 7.5 19.1667C7.5 21.4679 9.36548 23.3333 11.6667 23.3333Z" stroke="#1D1D1B" stroke-width="1.5" stroke-miterlimit="10" stroke-linecap="round" stroke-linejoin="round"/>
</svg>
