<svg width="219" height="202" viewBox="0 0 219 202" fill="none" xmlns="http://www.w3.org/2000/svg">
<g filter="url(#filter0_b_4103_1287)">
<mask id="path-1-inside-1_4103_1287" fill="white">
<path fill-rule="evenodd" clip-rule="evenodd" d="M82 20C82 8.95431 73.0457 0 62 0H20C8.95431 0 0 8.9543 0 20V182C0 193.046 8.95431 202 20 202H199C210.046 202 219 193.046 219 182V67C219 55.9543 210.046 47 199 47H102C90.9543 47 82 38.0457 82 27V20Z"/>
</mask>
<path fill-rule="evenodd" clip-rule="evenodd" d="M82 20C82 8.95431 73.0457 0 62 0H20C8.95431 0 0 8.9543 0 20V182C0 193.046 8.95431 202 20 202H199C210.046 202 219 193.046 219 182V67C219 55.9543 210.046 47 199 47H102C90.9543 47 82 38.0457 82 27V20Z" fill="white" fill-opacity="0.6"/>
<path d="M20 1.3H62V-1.3H20V1.3ZM1.3 182V20H-1.3V182H1.3ZM199 200.7H20V203.3H199V200.7ZM217.7 67V182H220.3V67H217.7ZM199 45.7H102V48.3H199V45.7ZM83.3 27V20H80.7V27H83.3ZM102 45.7C91.6723 45.7 83.3 37.3277 83.3 27H80.7C80.7 38.7637 90.2363 48.3 102 48.3V45.7ZM220.3 67C220.3 55.2363 210.764 45.7 199 45.7V48.3C209.328 48.3 217.7 56.6723 217.7 67H220.3ZM199 203.3C210.764 203.3 220.3 193.764 220.3 182H217.7C217.7 192.328 209.328 200.7 199 200.7V203.3ZM-1.3 182C-1.3 193.764 8.23634 203.3 20 203.3V200.7C9.67228 200.7 1.3 192.328 1.3 182H-1.3ZM62 1.3C72.3277 1.3 80.7 9.67228 80.7 20H83.3C83.3 8.23634 73.7637 -1.3 62 -1.3V1.3ZM20 -1.3C8.23634 -1.3 -1.3 8.23633 -1.3 20H1.3C1.3 9.67227 9.67228 1.3 20 1.3V-1.3Z" fill="white" mask="url(#path-1-inside-1_4103_1287)"/>
</g>
<defs>
<filter id="filter0_b_4103_1287" x="-58" y="-58" width="335" height="318" filterUnits="userSpaceOnUse" color-interpolation-filters="sRGB">
<feFlood flood-opacity="0" result="BackgroundImageFix"/>
<feGaussianBlur in="BackgroundImageFix" stdDeviation="29"/>
<feComposite in2="SourceAlpha" operator="in" result="effect1_backgroundBlur_4103_1287"/>
<feBlend mode="normal" in="SourceGraphic" in2="effect1_backgroundBlur_4103_1287" result="shape"/>
</filter>
</defs>
</svg>
