<svg width="273" height="250" viewBox="0 0 273 250" fill="none" xmlns="http://www.w3.org/2000/svg">
<g filter="url(#filter0_b_4103_1269)">
<mask id="path-1-inside-1_4103_1269" fill="white">
<path fill-rule="evenodd" clip-rule="evenodd" d="M60 11C60 4.92487 64.9249 0 71 0H202C208.075 0 213 4.92487 213 11C213 17.0751 217.925 22 224 22H253C264.046 22 273 30.9543 273 42V230C273 241.046 264.046 250 253 250H20C8.95431 250 0 241.046 0 230V42C0 30.9543 8.9543 22 20 22H49C55.0751 22 60 17.0751 60 11Z"/>
</mask>
<path fill-rule="evenodd" clip-rule="evenodd" d="M60 11C60 4.92487 64.9249 0 71 0H202C208.075 0 213 4.92487 213 11C213 17.0751 217.925 22 224 22H253C264.046 22 273 30.9543 273 42V230C273 241.046 264.046 250 253 250H20C8.95431 250 0 241.046 0 230V42C0 30.9543 8.9543 22 20 22H49C55.0751 22 60 17.0751 60 11Z" fill="white" fill-opacity="0.6"/>
<path d="M202 -1.3H71V1.3H202V-1.3ZM253 20.7H224V23.3H253V20.7ZM274.3 230V42H271.7V230H274.3ZM20 251.3H253V248.7H20V251.3ZM-1.3 42V230H1.3V42H-1.3ZM49 20.7H20V23.3H49V20.7ZM49 23.3C55.7931 23.3 61.3 17.7931 61.3 11H58.7C58.7 16.3572 54.3572 20.7 49 20.7V23.3ZM1.3 42C1.3 31.6723 9.67227 23.3 20 23.3V20.7C8.23633 20.7 -1.3 30.2363 -1.3 42H1.3ZM20 248.7C9.67228 248.7 1.3 240.328 1.3 230H-1.3C-1.3 241.764 8.23634 251.3 20 251.3V248.7ZM271.7 230C271.7 240.328 263.328 248.7 253 248.7V251.3C264.764 251.3 274.3 241.764 274.3 230H271.7ZM253 23.3C263.328 23.3 271.7 31.6723 271.7 42H274.3C274.3 30.2363 264.764 20.7 253 20.7V23.3ZM211.7 11C211.7 17.7931 217.207 23.3 224 23.3V20.7C218.643 20.7 214.3 16.3572 214.3 11H211.7ZM71 -1.3C64.2069 -1.3 58.7 4.2069 58.7 11H61.3C61.3 5.64284 65.6428 1.3 71 1.3V-1.3ZM202 1.3C207.357 1.3 211.7 5.64284 211.7 11H214.3C214.3 4.2069 208.793 -1.3 202 -1.3V1.3Z" fill="white" mask="url(#path-1-inside-1_4103_1269)"/>
</g>
<defs>
<filter id="filter0_b_4103_1269" x="-58" y="-58" width="389" height="366" filterUnits="userSpaceOnUse" color-interpolation-filters="sRGB">
<feFlood flood-opacity="0" result="BackgroundImageFix"/>
<feGaussianBlur in="BackgroundImageFix" stdDeviation="29"/>
<feComposite in2="SourceAlpha" operator="in" result="effect1_backgroundBlur_4103_1269"/>
<feBlend mode="normal" in="SourceGraphic" in2="effect1_backgroundBlur_4103_1269" result="shape"/>
</filter>
</defs>
</svg>
