<svg width="24" height="24" viewBox="0 0 24 24" fill="none" xmlns="http://www.w3.org/2000/svg">
<g clip-path="url(#clip0_4103_1298)">
<path d="M12 0C11.4353 0 10.8707 0.196593 10.3893 0.548245L8.88713 1.6152L7.1642 1.84594H7.13705L7.10809 1.87363C6.54154 2.00372 6.02282 2.29517 5.61226 2.71409C5.20169 3.13302 4.91615 3.6622 4.78883 4.24013L4.76168 4.26782V4.29735L4.53546 6.08607L3.48939 7.47052L3.46043 7.49821V7.52775C2.82881 8.55963 2.79985 9.89055 3.48939 10.8735L4.5617 12.4047L4.84584 13.9904L1.93205 18.5194L1 19.9315H5.32634L6.37241 22.4125L7.02394 24L7.95599 22.5574L10.8137 18.1733C11.5792 18.4963 12.4479 18.524 13.1881 18.1733L16.0449 22.5574L16.977 23.9972L17.6285 22.4097L18.6737 19.9306H23L22.0679 18.5166L19.2392 14.1334L19.4655 12.4029L20.5115 10.8744L20.5405 10.8467V10.8191C21.1721 9.78533 21.2011 8.48579 20.5115 7.50098L19.4655 5.97162L19.1261 4.24013H19.1533C19.1533 4.21705 19.1288 4.20321 19.1261 4.18198C18.9632 2.97566 18.0248 1.99454 16.8367 1.84686H16.8077L15.1111 1.61612L13.6116 0.549167C13.1436 0.199363 12.5802 0.00737071 12 0ZM12 1.87363C12.2081 1.87363 12.4144 1.93824 12.5656 2.04899L14.1763 3.2304L14.3754 3.37438L14.6016 3.40392L16.5815 3.69188H16.6087C17.0141 3.73803 17.3 4.02877 17.3444 4.44226V4.49948L17.7127 6.54848L17.7398 6.74876L17.8819 6.92228L19.0401 8.56517C19.2573 8.87436 19.2845 9.3903 19.013 9.83517L17.8819 11.4504L17.7407 11.6534L17.7117 11.8842L17.4294 13.9018V13.9295C17.4153 14.0739 17.3669 14.2127 17.2883 14.3337L17.2312 14.3633V14.3928C17.0964 14.557 16.9037 14.6604 16.6946 14.6808H16.6385L14.5754 15.0564L14.3491 15.0841L14.1772 15.229L12.5665 16.4104C12.2651 16.6319 11.7303 16.6596 11.2942 16.3827L9.8228 15.229L9.65268 15.085L9.39931 15.0555L7.41848 14.7675H7.38952C7.26146 14.7569 7.13789 14.7145 7.02955 14.644C6.92121 14.5736 6.83137 14.4772 6.76785 14.3633C6.70717 14.257 6.66838 14.1392 6.65383 14.0172V13.9599L6.28644 11.8556L6.25749 11.6248L6.11632 11.4494L4.95805 9.80656C4.74087 9.49921 4.71372 8.95374 4.98519 8.50886L6.11632 7.00811L6.25749 6.8346L6.28463 6.57616L6.54072 4.64254C6.54253 4.62962 6.56425 4.6287 6.56787 4.61485C6.62463 4.39284 6.7384 4.19029 6.89746 4.02805C7.05652 3.86582 7.25511 3.74978 7.47277 3.69188C7.48634 3.68819 7.48725 3.66604 7.49992 3.66419L9.39569 3.40392L9.62191 3.37438L9.82099 3.2304L11.4317 2.04899C11.5828 1.93824 11.7901 1.87363 11.9973 1.87363H12ZM18.2493 15.9212L19.6356 18.0847H17.4566L17.2303 18.6615L16.6096 20.1318L14.6867 17.1322L15.1102 16.8147L16.891 16.4963V16.5239C16.9136 16.5239 16.9272 16.499 16.948 16.4963C17.4239 16.4259 17.8726 16.2267 18.2474 15.9194L18.2493 15.9212ZM5.75074 15.9489C6.13713 16.3015 6.62578 16.547 7.1642 16.6135H7.19135L8.9179 16.8442L9.31334 17.1617L7.39133 20.1318L6.76966 18.6615L6.54344 18.0838H4.36262L5.74893 15.9489H5.75074Z" fill="#1D1D1B"/>
</g>
<defs>
<clipPath id="clip0_4103_1298">
<rect width="24" height="24" fill="white"/>
</clipPath>
</defs>
</svg>
